HIERARCHY
ROOT hip
{
  OFFSET 0 0 0
  CHANNELS 6 Xposition Yposition Zposition Zrotation Yrotation Xrotation
  JOINT abdomen
  {
    OFFSET 0 20.6881 -0.73152
    CHANNELS 3 Zrotation Xrotation Yrotation
    JOINT chest
    {
      OFFSET 0 11.7043 -0.48768
      CHANNELS 3 Zrotation Xrotation Yrotation
      JOINT neck
      {
        OFFSET 0 22.1894 -2.19456
        CHANNELS 3 Zrotation Xrotation Yrotation
        JOINT head
        {
          OFFSET -0.24384 7.07133 1.2192
          CHANNELS 3 Zrotation Xrotation Yrotation
          JOINT leftEye
          {
            OFFSET 4.14528 8.04674 8.04672
            CHANNELS 3 Zrotation Xrotation Yrotation
            End Site
            {
              OFFSET 1 0 0
            }
          }
          JOINT rightEye
          {
            OFFSET -3.6576 8.04674 8.04672
            CHANNELS 3 Zrotation Xrotation Yrotation
            End Site
            {
              OFFSET 1 0 0
            }
          }
        }
      }
      JOINT rCollar
      {
        OFFSET -2.68224 19.2634 -4.8768
        CHANNELS 3 Zrotation Xrotation Yrotation
        JOINT rShldr
        {
          OFFSET -8.77824 -1.95073 1.46304
          CHANNELS 3 Zrotation Xrotation Yrotation
          JOINT rForeArm
          {
            OFFSET -28.1742 -1.7115 0.48768
            CHANNELS 3 Zrotation Xrotation Yrotation
            JOINT rHand
            {
              OFFSET -22.5879 0.773209 7.07136
              CHANNELS 3 Zrotation Xrotation Yrotation
              JOINT rThumb1
              {
                OFFSET -1.2192 -0.487915 3.41376
                CHANNELS 3 Zrotation Xrotation Yrotation
                JOINT rThumb2
                {
                  OFFSET -3.37035 -0.52449 3.41376
                  CHANNELS 3 Zrotation Xrotation Yrotation
                  End Site
                  {
                    OFFSET -1.78271 -1.18214 1.43049
                  }
                }
              }
              JOINT rIndex1
              {
                OFFSET -7.75947 0.938293 5.60832
                CHANNELS 3 Zrotation Xrotation Yrotation
                JOINT rIndex2
                {
                  OFFSET -2.54057 -0.884171 1.56538
                  CHANNELS 3 Zrotation Xrotation Yrotation
                  End Site
                  {
                    OFFSET -1.62519 -0.234802 1.16502
                  }
                }
              }
              JOINT rMid1
              {
                OFFSET -8.24714 1.18213 3.41376
                CHANNELS 3 Zrotation Xrotation Yrotation
                JOINT rMid2
                {
                  OFFSET -3.10165 -0.590103 1.0647
                  CHANNELS 3 Zrotation Xrotation Yrotation
                  End Site
                  {
                    OFFSET -2.48547 -0.328903 0.83742
                  }
                }
              }
              JOINT rRing1
              {
                OFFSET -8.82822 0.546677 1.51678
                CHANNELS 3 Zrotation Xrotation Yrotation
                JOINT rRing2
                {
                  OFFSET -2.60934 -0.819778 -0.0198488
                  CHANNELS 3 Zrotation Xrotation Yrotation
                  End Site
                  {
                    OFFSET -2.33842 -0.294052 0.168128
                  }
                }
              }
              JOINT rPinky1
              {
                OFFSET -8.27202 -0.0477905 -0.4584
                CHANNELS 3 Zrotation Xrotation Yrotation
                JOINT rPinky2
                {
                  OFFSET -1.82734 -0.647385 -0.700984
                  CHANNELS 3 Zrotation Xrotation Yrotation
                  End Site
                  {
                    OFFSET -1.69225 -0.51767 -0.607171
                  }
                }
              }
            }
          }
        }
      }
      JOINT lCollar
      {
        OFFSET 2.68224 19.2634 -4.8768
        CHANNELS 3 Zrotation Xrotation Yrotation
        JOINT lShldr
        {
          OFFSET 8.77824 -1.95073 1.46304
          CHANNELS 3 Zrotation Xrotation Yrotation
          JOINT lForeArm
          {
            OFFSET 28.1742 -1.7115 0.48768
            CHANNELS 3 Zrotation Xrotation Yrotation
            JOINT lHand
            {
              OFFSET 22.5879 0.773209 7.07136
              CHANNELS 3 Zrotation Xrotation Yrotation
              JOINT lThumb1
              {
                OFFSET 1.2192 -0.487915 3.41376
                CHANNELS 3 Zrotation Xrotation Yrotation
                JOINT lThumb2
                {
                  OFFSET 3.37035 -0.52449 3.41376
                  CHANNELS 3 Zrotation Xrotation Yrotation
                  End Site
                  {
                    OFFSET 1.78271 -1.18214 1.43049
                  }
                }
              }
              JOINT lIndex1
              {
                OFFSET 7.75947 0.938293 5.60832
                CHANNELS 3 Zrotation Xrotation Yrotation
                JOINT lIndex2
                {
                  OFFSET 2.54057 -0.884171 1.56538
                  CHANNELS 3 Zrotation Xrotation Yrotation
                  End Site
                  {
                    OFFSET 1.62519 -0.234802 1.16502
                  }
                }
              }
              JOINT lMid1
              {
                OFFSET 8.24714 1.18213 3.41376
                CHANNELS 3 Zrotation Xrotation Yrotation
                JOINT lMid2
                {
                  OFFSET 3.10165 -0.590103 1.0647
                  CHANNELS 3 Zrotation Xrotation Yrotation
                  End Site
                  {
                    OFFSET 2.48547 -0.328903 0.83742
                  }
                }
              }
              JOINT lRing1
              {
                OFFSET 8.82822 0.546677 1.51678
                CHANNELS 3 Zrotation Xrotation Yrotation
                JOINT lRing2
                {
                  OFFSET 2.60934 -0.819778 -0.0198488
                  CHANNELS 3 Zrotation Xrotation Yrotation
                  End Site
                  {
                    OFFSET 2.33842 -0.294052 0.168128
                  }
                }
              }
              JOINT lPinky1
              {
                OFFSET 8.27202 -0.0477905 -0.4584
                CHANNELS 3 Zrotation Xrotation Yrotation
                JOINT lPinky2
                {
                  OFFSET 1.82734 -0.647385 -0.700984
                  CHANNELS 3 Zrotation Xrotation Yrotation
                  End Site
                  {
                    OFFSET 1.69225 -0.51767 -0.607171
                  }
                }
              }
            }
          }
        }
      }
    }
  }
  JOINT rButtock
  {
    OFFSET -8.77824 4.35084 1.2192
    CHANNELS 3 Zrotation Xrotation Yrotation
    JOINT rThigh
    {
      OFFSET 0 -1.70687 -2.19456
      CHANNELS 3 Zrotation Xrotation Yrotation
      JOINT rShin
      {
        OFFSET 0 -36.8199 0.73152
        CHANNELS 3 Zrotation Xrotation Yrotation
        JOINT rFoot
        {
          OFFSET 0.73152 -45.1104 -5.12064
          CHANNELS 3 Zrotation Xrotation Yrotation
          End Site
          {
            OFFSET -1.1221 -3.69964 12.103
          }
        }
      }
    }
  }
  JOINT lButtock
  {
    OFFSET 8.77824 4.35084 1.2192
    CHANNELS 3 Zrotation Xrotation Yrotation
    JOINT lThigh
    {
      OFFSET 0 -1.70687 -2.19456
      CHANNELS 3 Zrotation Xrotation Yrotation
      JOINT lShin
      {
        OFFSET 0 -36.8199 0.73152
        CHANNELS 3 Zrotation Xrotation Yrotation
        JOINT lFoot
        {
          OFFSET -0.73152 -45.1104 -5.12064
          CHANNELS 3 Zrotation Xrotation Yrotation
          End Site
          {
            OFFSET 1.1221 -3.69964 12.103
          }
        }
      }
    }
  }
}
MOTION
Frames:	6
Frame Time:	0.00833333
67.4838 85.5069 161.538 0.0 0.0 0.0 2.23596 -0.000458583 0.0604525 0.615901 0.00897636 0.106609 -8.29399e-15 -7.95139e-16 4.96962e-17 -2.44101e-14 3.18055e-15 7.45443e-17 -0.0 0.0 0.0 -0.0 0.0 0.0 -3.82862e-15 -9.78393e-17 9.93923e-17 -8.15159e-14 -2.25496e-15 1.19271e-15 -1.46186e-12 3.58608e-13 3.81667e-14 -1.6546e-11 -8.00779e-13 1.27222e-13 -3.90585e-11 -9.5443e-13 3.59403e-13 -6.74417e-11 -1.64753e-12 6.0192e-13 -3.90505e-11 -9.50986e-13 3.4668e-13 7.73091 5.47488 0.417314 -3.90571e-11 -9.54067e-13 3.62583e-13 2.90554 0.965183 0.102902 -3.90474e-11 -9.53272e-13 3.49861e-13 10.2786 0.731801 0.0259123 -3.90604e-11 -9.54564e-13 3.53042e-13 2.22167 -0.733487 -0.20892 -3.82486e-15 -9.39568e-17 -4.96962e-17 -8.71037e-14 -2.25496e-15 -5.96354e-16 -1.43925e-12 -5.03919e-13 1.90833e-14 -1.65797e-11 7.15873e-14 1.43125e-13 -3.90768e-11 -9.35501e-13 3.33958e-13 -6.74826e-11 -1.6189e-12 6.06691e-13 -3.90854e-11 -9.323e-13 3.53042e-13 -7.73091 5.47488 -0.417314 -3.90786e-11 -9.34984e-13 3.40319e-13 -2.90554 0.965183 -0.102902 -3.90865e-11 -9.35381e-13 3.49066e-13 -10.2786 0.731801 -0.0259123 -3.90807e-11 -9.37469e-13 3.4668e-13 -2.22167 -0.733487 0.20892 -2.03217e-16 0.0 -3.88251e-19 2.20714 -7.80166 -0.223932 0.00524739 8.5596 0.1361 -0.544238 -0.766539 0.0457459 2.03217e-16 0.0 3.88251e-19 1.18463 -1.92859 -0.00255285 0.0090857 -2.07858 0.0749341 0.51301 3.99847 -0.140462
68.5564 84.9942 149.817 -177.055 2.1227 -174.318 3.04453 -3.75113 0.846535 -0.0671915 -0.0820941 0.376377 -0.410311 3.80115 -0.450145 1.73404 -8.66054 -0.44274 -0.0 0.0 0.0 -0.0 0.0 0.0 -5.45086e-14 -2.30927e-14 7.37678e-18 22.3298 13.6868 -2.29228 -3.81616 -1.66079 6.03754 0.00276617 1.16992 0.1643 2.86685e-10 -4.44656e-10 3.95444e-10 4.97644e-10 -7.68361e-10 6.81895e-10 2.86694e-10 -4.44658e-10 3.95431e-10 7.73091 5.47488 0.417314 2.86691e-10 -4.44662e-10 3.9545e-10 2.90554 0.965183 0.102902 2.86696e-10 -4.44659e-10 3.95436e-10 10.2786 0.731801 0.0259123 2.86682e-10 -4.4466e-10 3.9544e-10 2.22167 -0.733487 -0.20892 -5.44787e-14 -2.30901e-14 -1.5763e-16 -21.535 15.2675 -0.67731 2.9925 -1.18243 -4.84887 -0.0353031 -4.16988 0.580445 4.79797e-10 5.17735e-10 1.60945e-10 8.26405e-10 8.95464e-10 2.83768e-10 4.79791e-10 5.17737e-10 1.60961e-10 -7.73091 5.47488 -0.417314 4.79795e-10 5.17733e-10 1.60949e-10 -2.90554 0.965183 -0.102902 4.79788e-10 5.17735e-10 1.60957e-10 -10.2786 0.731801 -0.0259123 4.79797e-10 5.17734e-10 1.60955e-10 -2.22167 -0.733487 0.20892 -2.03217e-16 0.0 -3.88251e-19 3.88316 -6.85588 1.83923 0.00605801 8.61504 0.136786 -0.794977 -3.80015 -4.0503 2.03217e-16 0.0 3.88251e-19 2.49009 -1.51701 -0.575565 0.00646493 -1.53582 0.0436762 0.434838 2.53223 -1.80861
68.5934 85.0522 149.837 -176.923 1.9024 -174.46 4.05071 -7.71844 1.70036 -0.797477 -0.172139 0.663221 -0.778588 7.81637 -0.931821 3.41364 -17.8159 -0.944331 -0.0 0.0 0.0 -0.0 0.0 0.0 -1.09501e-13 -4.92417e-14 2.51587e-16 47.2695 28.0908 -5.18767 -7.47412 -3.35635 12.4395 -0.00160838 2.39662 0.336804 6.29445e-10 -9.28122e-10 8.33068e-10 1.09236e-09 -1.60389e-09 1.43666e-09 6.29453e-10 -9.28128e-10 8.33053e-10 7.73091 5.47488 0.417314 6.29454e-10 -9.28133e-10 8.33077e-10 2.90554 0.965183 0.102902 6.29455e-10 -9.28129e-10 8.3306e-10 10.2786 0.731801 0.0259123 6.2944e-10 -9.28129e-10 8.33067e-10 2.22167 -0.733487 -0.20892 -1.09443e-13 -4.92404e-14 6.83323e-17 -43.8458 31.3948 -1.58257 5.94089 -2.40516 -9.9841 0.0201963 -8.57905 1.20471 1.0512e-09 1.08156e-09 3.23645e-10 1.81095e-09 1.87081e-09 5.7109e-10 1.05119e-09 1.08156e-09 3.23657e-10 -7.73091 5.47488 -0.417314 1.05119e-09 1.08156e-09 3.23646e-10 -2.90554 0.965183 -0.102902 1.05119e-09 1.08156e-09 3.23654e-10 -10.2786 0.731801 -0.0259123 1.0512e-09 1.08156e-09 3.23652e-10 -2.22167 -0.733487 0.20892 -2.03217e-16 0.0 -3.88251e-19 5.61682 -5.84575 4.03087 0.00688078 8.66671 0.137135 -1.52488 -6.88854 -8.42496 2.03217e-16 0.0 3.88251e-19 3.91258 -1.07896 -1.19246 0.00426891 -0.965834 0.010879 0.258937 0.95843 -3.55485
68.6004 85.0909 149.861 -176.953 1.6979 -174.593 4.97553 -11.2436 2.46051 -1.4308 -0.264207 0.915921 -1.0487 11.4006 -1.37459 4.76229 -25.9751 -1.46065 -0.0 0.0 0.0 -0.0 0.0 0.0 -1.55869e-13 -6.90823e-14 -1.76654e-16 71.1553 40.7534 -8.8351 -10.4148 -4.76151 18.1699 -0.0118625 3.50966 0.493722 9.38173e-10 -1.33206e-09 1.18561e-09 1.62782e-09 -2.30179e-09 2.04448e-09 9.38182e-10 -1.33207e-09 1.1856e-09 7.73091 5.47488 0.417314 9.38186e-10 -1.33208e-09 1.18563e-09 2.90554 0.965183 0.102902 9.38183e-10 -1.33207e-09 1.18561e-09 10.2786 0.731801 0.0259123 9.38166e-10 -1.33207e-09 1.18562e-09 2.22167 -0.733487 -0.20892 -1.55786e-13 -6.90823e-14 -3.73498e-16 -63.1252 45.771 -2.81081 8.38335 -3.44583 -14.5704 0.152752 -12.5044 1.77894 1.51755e-09 1.55508e-09 4.82167e-10 2.61418e-09 2.68963e-09 8.50091e-10 1.51754e-09 1.55508e-09 4.82176e-10 -7.73091 5.47488 -0.417314 1.51754e-09 1.55507e-09 4.82165e-10 -2.90554 0.965183 -0.102902 1.51754e-09 1.55508e-09 4.82173e-10 -10.2786 0.731801 -0.0259123 1.51755e-09 1.55508e-09 4.82171e-10 -2.22167 -0.733487 0.20892 -2.03217e-16 0.0 -3.88251e-19 7.03006 -4.94811 5.94416 0.00767523 8.72592 0.138157 -2.60256 -9.6696 -12.3945 2.03217e-16 0.0 3.88251e-19 5.12571 -0.693755 -1.72111 0.00299964 -0.450299 -0.0187887 0.0227576 -0.394899 -5.1404
68.6118 85.1257 149.889 -176.941 1.4802 -174.701 5.46568 -13.6723 2.94528 -1.82331 -0.361352 1.08325 -1.20236 13.91 -1.69729 5.6039 -31.65 -1.88999 -0.0 0.0 0.0 -0.0 0.0 0.0 -1.80675e-13 -7.3152e-14 -2.28602e-15 89.3006 49.3342 -12.617 -12.2869 -5.65193 22.1666 -0.0231427 4.33868 0.610941 1.16182e-09 -1.53718e-09 1.32546e-09 2.01514e-09 -2.65559e-09 2.28495e-09 1.16183e-09 -1.53719e-09 1.32545e-09 7.73091 5.47488 0.417314 1.16184e-09 -1.5372e-09 1.32548e-09 2.90554 0.965183 0.102902 1.16183e-09 -1.53719e-09 1.32546e-09 10.2786 0.731801 0.0259123 1.16181e-09 -1.53719e-09 1.32547e-09 2.22167 -0.733487 -0.20892 -1.80579e-13 -7.31531e-14 -2.48481e-15 -75.9303 55.7981 -4.1823 9.97879 -4.12844 -17.7617 0.293021 -15.2253 2.19214 1.72126e-09 1.80281e-09 6.30243e-10 2.96414e-09 3.11715e-09 1.10829e-09 1.72126e-09 1.80281e-09 6.30249e-10 -7.73091 5.47488 -0.417314 1.72126e-09 1.8028e-09 6.3024e-10 -2.90554 0.965183 -0.102902 1.72125e-09 1.80281e-09 6.30246e-10 -10.2786 0.731801 -0.0259123 1.72127e-09 1.80281e-09 6.30243e-10 -2.22167 -0.733487 0.20892 -2.03217e-16 0.0 -3.88251e-19 7.79084 -4.33972 7.17527 0.00839549 8.80397 0.14086 -3.67189 -11.8592 -15.2241 2.03217e-16 0.0 3.88251e-19 5.79696 -0.44059 -2.02944 0.00283519 -0.0708967 -0.0406596 -0.180369 -1.20479 -6.32366
68.4908 85.1964 149.937 -177.412 1.1619 -174.84 5.1692 -14.5664 2.99664 -1.86325 -0.479437 1.12885 -1.25661 14.9228 -1.83524 5.91617 -33.844 -2.09316 -0.0 0.0 0.0 -0.0 0.0 0.0 -1.76076e-13 -5.13405e-14 -7.82288e-15 96.9378 52.4932 -14.6352 -12.9688 -5.96764 23.7053 -0.0298544 4.7792 0.673346 1.25584e-09 -1.43934e-09 1.15529e-09 2.17677e-09 -2.48499e-09 1.98993e-09 1.25585e-09 -1.43935e-09 1.15527e-09 7.73091 5.47488 0.417314 1.25586e-09 -1.43936e-09 1.1553e-09 2.90554 0.965183 0.102902 1.25585e-09 -1.43935e-09 1.15528e-09 10.2786 0.731801 0.0259123 1.25583e-09 -1.43935e-09 1.15529e-09 2.22167 -0.733487 -0.20892 -1.75975e-13 -5.13428e-14 -8.00264e-15 -80.7689 59.7984 -4.81908 10.57 -4.37822 -18.9901 0.35841 -16.2746 2.35567 1.56772e-09 1.72981e-09 7.55455e-10 2.69764e-09 2.98887e-09 1.3232e-09 1.56772e-09 1.72981e-09 7.55462e-10 -7.73091 5.47488 -0.417314 1.56772e-09 1.7298e-09 7.55453e-10 -2.90554 0.965183 -0.102902 1.56772e-09 1.72981e-09 7.55457e-10 -10.2786 0.731801 -0.0259123 1.56773e-09 1.72981e-09 7.55452e-10 -2.22167 -0.733487 0.20892 -2.03217e-16 0.0 -3.88251e-19 7.63256 -4.14264 7.41741 0.00902167 8.91952 0.146429 -4.35215 -13.4179 -16.37 2.03217e-16 0.0 3.88251e-19 5.63509 -0.378205 -2.01429 0.00352221 0.124041 -0.0520764 -0.249282 -1.19637 -6.96023
